<svg xmlns="http://www.w3.org/2000/svg" viewBox="0 0 81.74 15.39">
<path d="M.81,15c-.07.24-.24.29-.41.1a2.67,2.67,0,0,1-.12-2.69A93.35,93.35,0,0,1,6.5.32c.22-.36.38-.39.62-.22.89.65,1.08,1.32.82,3a81,81,0,0,0-.79,8.64A97,97,0,0,1,13.34.22c.19-.29.41-.22.55.05.36.72.34,1.68-.74,3.48-1.42,2.35-4.47,8.11-5.88,11.3-.1.24-.22.29-.48.15-.72-.39-1.06-1-1.18-2.5A47.22,47.22,0,0,1,6,4.59,69,69,0,0,0,.81,15Z"/><path d="M22.32,5.77c-.08-.32.14-.39.43-.37.72.17,1.44.75,1.61,2.38.07.6.12,1.27.16,2a37.7,37.7,0,0,0,3.6-4.15c.2-.27.51-.32.48.12a4.49,4.49,0,0,1-1,2,25.58,25.58,0,0,1-3,3.32c.05.84.1,1.63.17,2.16.12,1,.43,1.29.77,1.29.84,0,2.06-1.75,2.68-3.21.12-.22.39-.22.44,0a2.37,2.37,0,0,1-.32,1.63,4.1,4.1,0,0,1-3.28,2.36c-1.28,0-1.9-.75-2.09-2.69v-.1c-1.85,1.51-3.79,2.79-5.11,2.79a1.74,1.74,0,0,1-1.83-2.12c-.81,1.06-2,2.16-3.26,2.07-1.71-.15-1.78-1.9-1.23-3.48a27.11,27.11,0,0,1,3.32-6.08c.19-.26.4-.24.6,0,.52.79.4,1.8-.46,3.22a22.74,22.74,0,0,0-1.87,3.5c-.48,1.18-.41,2,.12,2.07.93.07,2.28-1.56,3.55-3.65C18.31,8.33,19,6.68,19.75,5.64c.21-.31.41-.36.6-.14a2.6,2.6,0,0,1,0,2.66c-.52,1.08-1.84,3.2-2.42,4.52-.43,1-.58,1.87.12,1.85,1,0,2.9-1.42,4.87-3.2C22.72,9.51,22.56,6.94,22.32,5.77Z"/><path d="M28.87,4.92c-.24-.33-.1-.5.26-.48a13.08,13.08,0,0,0,2-.09,31.89,31.89,0,0,1,1.83-3c.21-.31.45-.29.57,0a3.23,3.23,0,0,1-.31,2.71,1.51,1.51,0,0,1,1.49.72c.17.29.07.46-.29.46a7.07,7.07,0,0,0-1.87.1c-.94,1.6-2.3,3.93-3.22,6-.79,1.75-.52,3.24.48,3.29s2.45-1.66,3.34-3.46c.14-.29.41-.33.5,0a2,2,0,0,1-.24,1.37c-.31.7-1.89,2.81-3.81,2.74-1.59-.05-2.86-1.83-1.71-4.59.51-1.2,1.52-3.21,2.55-5.11A2,2,0,0,1,28.87,4.92Z"/><path d="M39.47,12.17c1,.77,2.6,2,4.16,2a2.34,2.34,0,0,0,1.49-.43.84.84,0,0,0,0-1.25C43.8,11.43,40,9.94,40,7.47c0-3.29,3.72-6.1,5.86-7C47,0,48.16-.21,49,.51a4.32,4.32,0,0,1,1.2,2,3.07,3.07,0,0,1-.7,2.4A30.94,30.94,0,0,0,47.8,7.59c-.12.22-.26.34-.52.07A1.92,1.92,0,0,1,47,5.33c.5-1.15,2.3-3.14,1.72-3.74C48,.75,42,4.42,41.92,7.42c-.07,1.56,3,2.83,4.35,3.79.91.65.79,1.76-.27,3-1.44,1.66-5.61,2.11-9-2-.26-.31-.17-.48,0-.55A2.77,2.77,0,0,1,39.47,12.17Z"/><path d="M49.94,4.92c-.24-.33-.1-.5.26-.48a13.08,13.08,0,0,0,2-.09,31.89,31.89,0,0,1,1.83-3c.21-.31.45-.29.58,0a3.28,3.28,0,0,1-.32,2.71,1.51,1.51,0,0,1,1.49.72c.17.29.07.46-.29.46a7.07,7.07,0,0,0-1.87.1c-.94,1.6-2.3,3.93-3.22,6-.79,1.75-.52,3.24.48,3.29s2.45-1.66,3.34-3.46c.14-.29.41-.33.5,0a2,2,0,0,1-.24,1.37c-.31.7-1.89,2.81-3.81,2.74-1.59-.05-2.86-1.83-1.71-4.59.51-1.2,1.52-3.21,2.55-5.11A2,2,0,0,1,49.94,4.92Z"/><path d="M62.27,5.62c.22-.31.41-.36.58-.14a2.62,2.62,0,0,1,0,2.66C62.3,9.22,61.1,11,60.52,12.29s-.62,2.38.19,2.33c1,0,2.31-1.68,3.15-3.33.12-.22.29-.24.38,0A2.13,2.13,0,0,1,64,12.75c-.63,1.32-2.14,2.64-3.46,2.57a1.86,1.86,0,0,1-2-2,4.22,4.22,0,0,1-3,1.87c-2.23,0-2.69-3.05-.69-6s3.84-3.91,5-3.91a1.46,1.46,0,0,1,1.46,1.72C61.72,6.51,62,6,62.27,5.62Zm-1.92,1c-.76-.07-2.52,1.49-3.84,3.63s-1.58,4.18-.64,4.2,2.23-1.51,3.45-3.62C60.83,8.16,61.05,6.68,60.35,6.6Z"/><path d="M64.84,4.92c-.24-.33-.09-.5.27-.48a13.14,13.14,0,0,0,2-.09,30.23,30.23,0,0,1,1.82-3c.22-.31.46-.29.58,0a3.31,3.31,0,0,1-.31,2.71,1.5,1.5,0,0,1,1.48.72c.17.29.08.46-.28.46a7.14,7.14,0,0,0-1.88.1c-.93,1.6-2.3,3.93-3.21,6-.79,1.75-.53,3.24.48,3.29s2.45-1.66,3.33-3.46c.15-.29.41-.33.51,0a2,2,0,0,1-.24,1.37c-.31.7-1.9,2.81-3.82,2.74-1.58-.05-2.85-1.83-1.7-4.59.5-1.2,1.51-3.21,2.54-5.11A2,2,0,0,1,64.84,4.92Z"/><path d="M68.59,11.74a29.62,29.62,0,0,1,3.07-5.83c.21-.29.38-.36.57-.14a2.49,2.49,0,0,1,0,2.61c-.5,1.06-1.51,2.69-2,3.89-.57,1.39-.52,2.33.24,2.28,1.08-.05,2.4-1.63,3.12-3.29.12-.21.29-.19.39,0a1.71,1.71,0,0,1-.17,1.49,4.3,4.3,0,0,1-3.58,2.5C68.37,15.25,67.91,13.71,68.59,11.74Zm5.35-6.26a.88.88,0,0,1-1.35-.36,1.51,1.51,0,0,1,.12-1.78c.39-.41,1.08-.12,1.4.53A1.46,1.46,0,0,1,73.94,5.48Z"/><path d="M80.61,6.94c.5,1-.46,2.28-.94,3.58-.09.29-.19.36-.5.19-.58-.29-.91-1-.58-2.09.27-.86,1-1.9.65-2.16S77,7.66,76,9.85c-1.32,2.71-.81,4.7.6,4.72,2,0,3.75-1.89,4.73-3.4.12-.2.34-.22.43,0a2.12,2.12,0,0,1-.43,1.44,6,6,0,0,1-4.63,2.62c-3.05,0-4.08-2.93-2.52-6s4-4.32,5.16-3.6A3.16,3.16,0,0,1,80.61,6.94Z"/>
</svg>
